<svg width="34" height="34" viewBox="0 0 34 34" fill="none" xmlns="http://www.w3.org/2000/svg">
<path d="M17.0002 19.333L21.8335 24.1663C22.1391 24.4719 22.5279 24.6247 23.0002 24.6247C23.4724 24.6247 23.8613 24.4719 24.1668 24.1663C24.4724 23.8608 24.6252 23.4719 24.6252 22.9997C24.6252 22.5275 24.4724 22.1386 24.1668 21.833L19.3335 16.9997L24.1668 12.1663C24.4724 11.8608 24.6252 11.4719 24.6252 10.9997C24.6252 10.5275 24.4724 10.1386 24.1668 9.83301C23.8613 9.52745 23.4724 9.37467 23.0002 9.37467C22.5279 9.37467 22.1391 9.52745 21.8335 9.83301L17.0002 14.6663L12.1668 9.83301C11.8613 9.52745 11.4724 9.37467 11.0002 9.37467C10.5279 9.37467 10.1391 9.52745 9.8335 9.83301C9.52794 10.1386 9.37516 10.5275 9.37516 10.9997C9.37516 11.4719 9.52794 11.8608 9.8335 12.1663L14.6668 16.9997L9.8335 21.833C9.52794 22.1386 9.37516 22.5275 9.37516 22.9997C9.37516 23.4719 9.52794 23.8608 9.8335 24.1663C10.1391 24.4719 10.5279 24.6247 11.0002 24.6247C11.4724 24.6247 11.8613 24.4719 12.1668 24.1663L17.0002 19.333ZM17.0002 33.6663C14.6946 33.6663 12.5279 33.2286 10.5002 32.353C8.47239 31.4775 6.7085 30.2902 5.2085 28.7913C3.7085 27.2913 2.52127 25.5275 1.64683 23.4997C0.772385 21.4719 0.334607 19.3052 0.333496 16.9997C0.333496 14.6941 0.771274 12.5275 1.64683 10.4997C2.52239 8.4719 3.70961 6.70801 5.2085 5.20801C6.7085 3.70801 8.47239 2.52079 10.5002 1.64634C12.5279 0.771897 14.6946 0.334119 17.0002 0.333008C19.3057 0.333008 21.4724 0.770786 23.5002 1.64634C25.5279 2.5219 27.2918 3.70912 28.7918 5.20801C30.2918 6.70801 31.4796 8.4719 32.3552 10.4997C33.2307 12.5275 33.6679 14.6941 33.6668 16.9997C33.6668 19.3052 33.2291 21.4719 32.3535 23.4997C31.4779 25.5275 30.2907 27.2913 28.7918 28.7913C27.2918 30.2913 25.5279 31.4791 23.5002 32.3547C21.4724 33.2302 19.3057 33.6675 17.0002 33.6663ZM17.0002 30.333C20.7224 30.333 23.8752 29.0413 26.4585 26.458C29.0418 23.8747 30.3335 20.7219 30.3335 16.9997C30.3335 13.2775 29.0418 10.1247 26.4585 7.54134C23.8752 4.95801 20.7224 3.66634 17.0002 3.66634C13.2779 3.66634 10.1252 4.95801 7.54183 7.54134C4.9585 10.1247 3.66683 13.2775 3.66683 16.9997C3.66683 20.7219 4.9585 23.8747 7.54183 26.458C10.1252 29.0413 13.2779 30.333 17.0002 30.333Z" fill="black"/>
</svg>
