<svg width="55" height="55" viewBox="0 0 55 55" fill="none" xmlns="http://www.w3.org/2000/svg">
<rect width="54.6416" height="54.7034" rx="27.3208" fill="#F24E1E"/>
<path d="M29.5758 11.294C29.5753 10.7962 29.7369 10.3117 30.0362 9.91393C30.3354 9.51613 30.7561 9.2266 31.2346 9.08912C31.713 8.95165 32.2232 8.9737 32.688 9.15195C33.1528 9.3302 33.5469 9.65495 33.8108 10.0771L39.9708 16.2371C40.1835 16.45 40.3523 16.7028 40.4674 16.9809C40.5825 17.259 40.6417 17.5571 40.6416 17.8581C40.6414 18.1591 40.5821 18.4572 40.4668 18.7352C40.3515 19.0133 40.1826 19.2659 39.9696 19.4787C39.7567 19.6914 39.504 19.8602 39.2258 19.9753C38.9477 20.0904 38.6496 20.1495 38.3486 20.1494C38.0476 20.1493 37.7496 20.0899 37.4715 19.9746C37.1935 19.8594 36.9408 19.6904 36.7281 19.4775L34.1614 16.9086V34.2106C34.1614 34.8184 33.92 35.4013 33.4902 35.8311C33.0604 36.2609 32.4775 36.5023 31.8697 36.5023C31.2619 36.5023 30.6791 36.2609 30.2493 35.8311C29.8195 35.4013 29.5781 34.8184 29.5781 34.2106L29.5758 11.294ZM25.0658 43.4094C25.0663 43.9072 24.9047 44.3916 24.6054 44.7894C24.3061 45.1872 23.8854 45.4768 23.407 45.6142C22.9285 45.7517 22.4183 45.7297 21.9535 45.5514C21.4887 45.3732 21.0946 45.0484 20.8308 44.6263L14.6708 38.4663C14.2411 38.0363 13.9998 37.4532 14 36.8452C14.0002 36.2373 14.2419 35.6544 14.6719 35.2247C15.1019 34.795 15.685 34.5537 16.2929 34.5539C16.9009 34.5541 17.4838 34.7958 17.9135 35.2258L20.4802 37.7948V20.4927C20.4802 19.8849 20.7216 19.302 21.1514 18.8723C21.5811 18.4425 22.164 18.2011 22.7718 18.2011C23.3796 18.2011 23.9625 18.4425 24.3923 18.8723C24.822 19.302 25.0635 19.8849 25.0635 20.4927L25.0658 43.4094Z" fill="white"/>
</svg>
