<svg width="22" height="19" viewBox="0 0 22 19" fill="none" xmlns="http://www.w3.org/2000/svg">
<path d="M9.75007 18.5C9.39591 18.5 9.09882 18.392 8.85882 18.176C8.61882 17.96 8.49924 17.693 8.50007 17.375V10.625L1.25007 2.3C0.937573 1.925 0.89049 1.53125 1.10882 1.11875C1.32716 0.70625 1.70757 0.5 2.25007 0.5H19.7501C20.2917 0.5 20.6722 0.70625 20.8913 1.11875C21.1105 1.53125 21.0634 1.925 20.7501 2.3L13.5001 10.625V17.375C13.5001 17.6938 13.3801 17.9611 13.1401 18.1771C12.9001 18.3931 12.6034 18.5007 12.2501 18.5H9.75007Z" fill="black" fill-opacity="0.62"/>
</svg>
