<svg width="37" height="32" viewBox="0 0 37 32" fill="none" xmlns="http://www.w3.org/2000/svg">
<path d="M14.3866 30.0014V30V18V17.8075L14.2575 17.6647L0.883937 2.86896C0.64654 2.59332 0.536133 2.3421 0.507752 2.11342C0.479542 1.88612 0.52629 1.63287 0.686773 1.34074C0.982975 0.80156 1.49303 0.5 2.35433 0.5H34.6446C35.5039 0.5 36.0146 0.801325 36.3125 1.34145C36.4736 1.63355 36.5204 1.88654 36.4923 2.11342C36.4639 2.34179 36.3534 2.59293 36.1152 2.8687L22.7414 17.6647L22.6123 17.8075V18V30C22.6123 30.4161 22.4581 30.7555 22.1205 31.0482C21.7793 31.3441 21.3527 31.5011 20.8069 31.5H20.8059H16.193C15.645 31.5 15.2174 31.3422 14.8761 31.0462C14.5385 30.7535 14.3854 30.4152 14.3866 30.0014Z" fill="#F24E1E" stroke="#F24E1E"/>
</svg>
