<svg width="53" height="50" viewBox="0 0 53 50" fill="none" xmlns="http://www.w3.org/2000/svg">
<g clip-path="url(#clip0_2446_2515)">
<path d="M47.1111 6.94434H5.88889C4.32706 6.94434 2.8292 7.52965 1.72482 8.57152C0.620435 9.61339 0 11.0265 0 12.4999L0 37.4999C0 38.9733 0.620435 40.3864 1.72482 41.4283C2.8292 42.4701 4.32706 43.0554 5.88889 43.0554H47.1111C48.6729 43.0554 50.1708 42.4701 51.2752 41.4283C52.3796 40.3864 53 38.9733 53 37.4999V12.4999C53 11.0265 52.3796 9.61339 51.2752 8.57152C50.1708 7.52965 48.6729 6.94434 47.1111 6.94434Z" fill="#003399"/>
<path d="M27.2933 13.4794L28.5432 12.6224H26.9988L26.5204 11.2363L26.0434 12.6224H24.499L25.7489 13.4794L25.2705 14.8655L26.5204 14.0086L27.7703 14.8655L27.2933 13.4794ZM27.2933 37.553L28.5432 36.6961H26.9988L26.5204 35.3099L26.0434 36.6961H24.499L25.7489 37.553L25.2705 38.9391L26.5204 38.0822L27.7703 38.9391L27.2933 37.553ZM14.535 25.5155L15.7849 24.6586H14.2391L13.7621 23.2724L13.2836 24.6586H11.7393L12.9892 25.5155L12.5122 26.9016L13.7621 26.0447L15.012 26.9016L14.535 25.5155ZM16.1648 19.5641L17.4147 18.7072H15.8688L15.3918 17.3211L14.9148 18.7072H13.369L14.6189 19.5641L14.1419 20.9502L15.3918 20.0933L16.6418 20.9502L16.1648 19.5641ZM16.1648 31.5349L17.4147 30.678H15.8688L15.3918 29.2919L14.9148 30.678H13.369L14.6189 31.5349L14.1419 32.921L15.3918 32.0641L16.6418 32.921L16.1648 31.5349ZM20.9141 15.0919L22.1641 14.2349H20.6182L20.1412 12.8488L19.6642 14.2349H18.1184L19.3683 15.0919L18.8913 16.478L20.1412 15.621L21.3911 16.478L20.9141 15.0919ZM20.9141 36.0183L22.1641 35.1613H20.6182L20.1412 33.7752L19.6642 35.1613H18.1184L19.3683 36.0183L18.8913 37.4044L20.1412 36.5488L21.3911 37.4044L20.9141 36.0183ZM38.4645 25.5155L37.2146 24.6586H38.7604L39.2374 23.2724L39.7159 24.6586H41.2603L40.0103 25.5155L40.4873 26.9016L39.2374 26.0447L37.9875 26.9016L38.4645 25.5155ZM36.8348 19.5641L35.5848 18.7072H37.1307L37.6077 17.3211L38.0847 18.7072H39.6305L38.3806 19.5641L38.8576 20.9502L37.6077 20.0933L36.3578 20.9502L36.8348 19.5641ZM36.8348 31.5349L35.5848 30.678H37.1307L37.6077 29.2919L38.0847 30.678H39.6305L38.3806 31.5349L38.8576 32.921L37.6077 32.0641L36.3578 32.921L36.8348 31.5349ZM32.0854 15.0919L30.8355 14.2349H32.3813L32.8583 12.8488L33.3353 14.2349H34.8811L33.6312 15.0919L34.1082 16.478L32.8583 15.621L31.6084 16.478L32.0854 15.0919ZM32.0854 36.0183L30.8355 35.1613H32.3813L32.8583 33.7752L33.3353 35.1613H34.8811L33.6312 36.0183L34.1082 37.4044L32.8583 36.5488L31.6084 37.4044L32.0854 36.0183Z" fill="#FFCC00"/>
</g>
<defs>
<clipPath id="clip0_2446_2515">
<rect width="53" height="50" fill="white"/>
</clipPath>
</defs>
</svg>
