<svg width="53" height="50" viewBox="0 0 53 50" fill="none" xmlns="http://www.w3.org/2000/svg">
<g clip-path="url(#clip0_2446_2527)">
<path d="M52.1829 9.72211C51.1627 8.06795 49.2856 6.94434 47.1111 6.94434H26.5V9.72211H52.1829ZM0 34.7221H53V37.4999H0V34.7221ZM26.5 23.611H53V26.3888H26.5V23.611ZM26.5 18.0554H53V20.8332H26.5V18.0554ZM0 29.1666H53V31.9443H0V29.1666ZM5.88889 43.0554H47.1111C49.2856 43.0554 51.1627 41.9318 52.1829 40.2777H0.817083C1.83733 41.9318 3.71442 43.0554 5.88889 43.0554ZM26.5 12.4999H53V15.2777H26.5V12.4999Z" fill="#B22334"/>
<path d="M0.100111 38.4435C0.125139 38.5727 0.153111 38.7018 0.186972 38.8282C0.22525 38.9685 0.272361 39.1032 0.322417 39.2393C0.453444 39.599 0.612444 39.9463 0.812667 40.2713L0.817083 40.2782H52.1829L52.1859 40.2727C52.3835 39.9452 52.5472 39.6006 52.6746 39.2435C52.7716 38.9828 52.8464 38.7153 52.8984 38.4435C52.9588 38.1379 53 37.824 53 37.5004H0C0 37.824 0.0412222 38.1365 0.100111 38.4435ZM0 31.9449H53V34.7227H0V31.9449ZM0 26.3893V29.1671H53V26.3893H26.5H0ZM26.5 20.8338H53V23.6115H26.5V20.8338ZM26.5 15.2782H53V18.056H26.5V15.2782ZM0.188444 11.1727C0.22525 11.031 0.276778 10.8963 0.323889 10.7602C0.272763 10.8958 0.227577 11.0335 0.188444 11.1727ZM26.5 12.5004H53C53 12.1768 52.9588 11.8629 52.8984 11.556C52.8469 11.2839 52.7715 11.0163 52.6732 10.756C52.5456 10.3974 52.3814 10.0513 52.1829 9.72266H26.5V12.5004Z" fill="#EEEEEE"/>
<path d="M26.5 6.94434H5.88889C4.32706 6.94434 2.8292 7.52965 1.72482 8.57152C0.620435 9.61339 0 11.0265 0 12.4999L0 26.3888H26.5V6.94434Z" fill="#003399"/>
<path d="M2.94629 10.731L3.85612 11.3546L3.50868 12.3615L4.41704 11.7393L5.32687 12.3615L4.97943 11.3546L5.88926 10.731H4.76448L4.41704 9.72266L4.07107 10.731H2.94629ZM5.89073 13.5088L6.80057 14.1324L6.45312 15.1393L7.36148 14.5171L8.27132 15.1393L7.92387 14.1324L8.83371 13.5088H7.70893L7.36148 12.5004L7.01551 13.5088H5.89073ZM11.7796 13.5088L12.6895 14.1324L12.342 15.1393L13.2504 14.5171L14.1602 15.1393L13.8128 14.1324L14.7226 13.5088H13.5978L13.2504 12.5004L12.9044 13.5088H11.7796ZM17.6685 13.5088L18.5783 14.1324L18.2309 15.1393L19.1393 14.5171L20.0491 15.1393L19.7016 14.1324L20.6115 13.5088H19.4867L19.1393 12.5004L18.7933 13.5088H17.6685ZM5.89073 19.0643L6.80057 19.6879L6.45312 20.6949L7.36148 20.0727L8.27132 20.6949L7.92387 19.6879L8.83371 19.0643H7.70893L7.36148 18.056L7.01551 19.0643H5.89073ZM11.7796 19.0643L12.6895 19.6879L12.342 20.6949L13.2504 20.0727L14.1602 20.6949L13.8128 19.6879L14.7226 19.0643H13.5978L13.2504 18.056L12.9044 19.0643H11.7796ZM17.6685 19.0643L18.5783 19.6879L18.2309 20.6949L19.1393 20.0727L20.0491 20.6949L19.7016 19.6879L20.6115 19.0643H19.4867L19.1393 18.056L18.7933 19.0643H17.6685ZM8.83518 10.731L9.74501 11.3546L9.39757 12.3615L10.3059 11.7393L11.2158 12.3615L10.8683 11.3546L11.7781 10.731H10.6534L10.3059 9.72266L9.95996 10.731H8.83518ZM14.7241 10.731L15.6339 11.3546L15.2865 12.3615L16.1948 11.7393L17.1046 12.3615L16.7572 11.3546L17.667 10.731H16.5423L16.1948 9.72266L15.8488 10.731H14.7241ZM20.613 10.731L21.5228 11.3546L21.1753 12.3615L22.0837 11.7393L22.9935 12.3615L22.6461 11.3546L23.5559 10.731H22.4311L22.0837 9.72266L21.7377 10.731H20.613ZM2.94629 16.2865L3.85612 16.9102L3.50868 17.9171L4.41704 17.2949L5.32687 17.9171L4.97943 16.9102L5.88926 16.2865H4.76448L4.41704 15.2782L4.07107 16.2865H2.94629ZM9.39757 17.9171L10.3059 17.2949L11.2158 17.9171L10.8683 16.9102L11.7781 16.2865H10.6534L10.3059 15.2782L9.95996 16.2865H8.83518L9.74501 16.9102L9.39757 17.9171ZM14.7241 16.2865L15.6339 16.9102L15.2865 17.9171L16.1948 17.2949L17.1046 17.9171L16.7572 16.9102L17.667 16.2865H16.5423L16.1948 15.2782L15.8488 16.2865H14.7241ZM20.613 16.2865L21.5228 16.9102L21.1753 17.9171L22.0837 17.2949L22.9935 17.9171L22.6461 16.9102L23.5559 16.2865H22.4311L22.0837 15.2782L21.7377 16.2865H20.613ZM2.94629 21.8421L3.85612 22.4657L3.50868 23.4727L4.41704 22.8504L5.32687 23.4727L4.97943 22.4657L5.88926 21.8421H4.76448L4.41704 20.8338L4.07107 21.8421H2.94629ZM9.39757 23.4727L10.3059 22.8504L11.2158 23.4727L10.8683 22.4657L11.7781 21.8421H10.6534L10.3059 20.8338L9.95996 21.8421H8.83518L9.74501 22.4657L9.39757 23.4727ZM14.7241 21.8421L15.6339 22.4657L15.2865 23.4727L16.1948 22.8504L17.1046 23.4727L16.7572 22.4657L17.667 21.8421H16.5423L16.1948 20.8338L15.8488 21.8421H14.7241ZM20.613 21.8421L21.5228 22.4657L21.1753 23.4727L22.0837 22.8504L22.9935 23.4727L22.6461 22.4657L23.5559 21.8421H22.4311L22.0837 20.8338L21.7377 21.8421H20.613Z" fill="black"/>
</g>
<defs>
<clipPath id="clip0_2446_2527">
<rect width="53" height="50" fill="white"/>
</clipPath>
</defs>
</svg>
