<svg width="46" height="37" viewBox="0 0 46 37" fill="none" xmlns="http://www.w3.org/2000/svg">
<path d="M23.1797 1.58191C23.1348 1.58191 23.0719 1.58191 23.018 1.59058C22.6047 1.65201 22.1105 1.95914 21.7871 2.66084C21.4457 3.36181 21.3738 4.36125 21.6703 5.4315C21.9758 6.48875 22.6047 7.40001 23.3055 7.95646C23.9883 8.51291 24.6082 8.66466 25.0215 8.60685C25.4527 8.55626 25.9289 8.2383 26.2523 7.54455C26.5938 6.84791 26.6836 5.83474 26.3781 4.77316C26.0637 3.70363 25.4438 2.80103 24.743 2.2482C24.15 1.75679 23.602 1.58191 23.1797 1.58191ZM33.5477 10.941C32.5594 10.9627 31.3105 11.1723 30.0977 11.5842C28.6961 12.0756 27.618 12.7332 27.025 13.3547C26.432 13.9545 26.3781 14.4098 26.5668 14.6772C26.7645 14.9445 27.3125 15.1975 28.3637 15.2336C29.4148 15.2842 30.8344 15.0746 32.227 14.5977C33.6195 14.1135 34.7156 13.4486 35.3086 12.8416C35.9016 12.2418 35.9465 11.7721 35.7578 11.5047C35.5691 11.2301 35.0121 10.9916 33.9609 10.9627C33.8172 10.941 33.6914 10.941 33.5477 10.941ZM21.302 17.6545C20.709 17.6617 20.1699 17.7195 19.6848 17.8207C18.6246 18.0375 18.0137 18.4277 17.816 18.8975C17.5914 19.3672 17.816 19.9309 18.5168 20.5379C19.2535 21.1305 20.4664 21.7014 21.9758 22.0194C23.4762 22.3373 24.9227 22.3301 26.0008 22.0988C27.0879 21.8748 27.6988 21.4774 27.8965 21.0149C28.1031 20.5451 27.8965 19.9887 27.1687 19.3744C26.459 18.7819 25.2461 18.211 23.7367 17.9002C22.8832 17.7195 22.0477 17.6473 21.302 17.6545ZM35.7398 21.8531L30.1875 23.9705C30.5648 23.985 31.5082 24.0067 31.5082 24.0067L32.1012 24.6354L37.0156 22.5758L35.7398 21.8531ZM30.8434 21.8604L25.6863 23.826C26.1805 23.8477 27.3484 23.8621 27.8156 23.8838L32.2898 22.1783L30.8434 21.8604ZM39.1629 22.6408L32.8289 25.3436L34.1316 26.6949L40.825 23.4719L39.1629 22.6408ZM14.1145 23.2985C13.8424 23.298 13.5712 23.3223 13.3059 23.3707C6.88203 24.5631 3.09062 24.6643 1.96758 24.6643H1.61719V32.4328C1.61719 32.4328 2.65938 32.31 4.39336 32.3027C7.74453 32.3027 13.6473 32.7652 19.3973 35.468C19.7027 35.6197 20.3586 35.6776 21.1762 35.6776C23.3594 35.6776 26.6746 35.2584 27.4383 35.0272C35.1289 32.7074 44.3828 26.3408 44.3828 26.3408L41.4629 24.2885C41.4629 24.2885 34.2934 27.9668 33.3859 28.3209C25.2012 31.5512 18.5707 29.535 18.5707 29.535C18.5707 29.535 29.343 29.7518 32.802 27.5621L30.7715 25.1051C30.7715 25.1051 23.3324 24.9389 20.682 24.657C19.2984 24.5125 16.3066 23.2985 14.1145 23.2985Z" fill="#F24E1E"/>
</svg>
