<svg width="38" height="33" viewBox="0 0 38 33" fill="none" xmlns="http://www.w3.org/2000/svg">
<path d="M11.083 28.875C10.2122 28.875 9.46643 28.6055 8.84576 28.0665C8.2251 27.5275 7.91529 26.8803 7.91635 26.125V8.25C7.46774 8.25 7.09143 8.118 6.78743 7.854C6.48343 7.59 6.33196 7.26367 6.33301 6.87501C6.33301 6.48542 6.48501 6.15863 6.78901 5.89463C7.09301 5.63063 7.46879 5.49909 7.91635 5.5H14.2497C14.2497 5.11042 14.4017 4.78363 14.7057 4.51963C15.0097 4.25563 15.3855 4.12409 15.833 4.125H22.1663C22.615 4.125 22.9913 4.257 23.2953 4.521C23.5993 4.785 23.7507 5.11134 23.7497 5.5H30.083C30.5316 5.5 30.9079 5.632 31.2119 5.896C31.5159 6.16 31.6674 6.48634 31.6663 6.87501C31.6663 7.26459 31.5143 7.59138 31.2103 7.85538C30.9063 8.11938 30.5306 8.25092 30.083 8.25V26.125C30.083 26.8813 29.7727 27.5289 29.152 28.0679C28.5313 28.6069 27.7861 28.8759 26.9163 28.875H11.083ZM11.083 8.25V26.125H26.9163V8.25H11.083ZM14.2497 22C14.2497 22.3896 14.4017 22.7164 14.7057 22.9804C15.0097 23.2444 15.3855 23.3759 15.833 23.375C16.2816 23.375 16.6579 23.243 16.9619 22.979C17.2659 22.715 17.4174 22.3887 17.4163 22V12.375C17.4163 11.9854 17.2643 11.6586 16.9603 11.3946C16.6563 11.1306 16.2806 10.9991 15.833 11C15.3844 11 15.0081 11.132 14.7041 11.396C14.4001 11.66 14.2486 11.9863 14.2497 12.375V22ZM20.583 22C20.583 22.3896 20.735 22.7164 21.039 22.9804C21.343 23.2444 21.7188 23.3759 22.1663 23.375C22.615 23.375 22.9913 23.243 23.2953 22.979C23.5993 22.715 23.7507 22.3887 23.7497 22V12.375C23.7497 11.9854 23.5977 11.6586 23.2937 11.3946C22.9897 11.1306 22.6139 10.9991 22.1663 11C21.7177 11 21.3414 11.132 21.0374 11.396C20.7334 11.66 20.582 11.9863 20.583 12.375V22Z" fill="#F24E1E"/>
</svg>
