<svg width="40" height="40" viewBox="0 0 40 40" fill="none" xmlns="http://www.w3.org/2000/svg">
<path d="M16.6665 34.6287C15.2159 34.2997 13.8227 33.7553 12.5332 33.0137M23.3332 5.37207C26.6468 6.12886 29.6053 7.98822 31.7243 10.6457C33.8433 13.3033 34.9973 16.6015 34.9973 20.0004C34.9973 23.3993 33.8433 26.6975 31.7243 29.3551C29.6053 32.0126 26.6468 33.872 23.3332 34.6287M7.63154 28.4887C6.72238 27.1679 6.03188 25.7092 5.58654 24.1687M5.20654 17.5004C5.47321 15.9171 5.98654 14.4171 6.70654 13.0421L6.98821 12.5337M11.5115 7.63207C13.071 6.55857 14.8204 5.7916 16.6665 5.37207" stroke="black" stroke-width="2.16667" stroke-linecap="round" stroke-linejoin="round"/>
<path d="M15 20.0003L18.3333 23.3337L25 16.667" stroke="black" stroke-width="2.16667" stroke-linecap="round" stroke-linejoin="round"/>
</svg>
