<svg width="22" height="20" viewBox="0 0 22 20" fill="none" xmlns="http://www.w3.org/2000/svg">
<path d="M11 0C13.9174 0 16.7153 1.05357 18.7782 2.92893C20.8411 4.8043 22 7.34784 22 10C22 12.6522 20.8411 15.1957 18.7782 17.0711C16.7153 18.9464 13.9174 20 11 20C8.08262 20 5.28473 18.9464 3.22183 17.0711C1.15893 15.1957 0 12.6522 0 10C0 7.34784 1.15893 4.8043 3.22183 2.92893C5.28473 1.05357 8.08262 0 11 0ZM9.62971 11.9729L7.18614 9.75C7.09854 9.67036 6.99454 9.60719 6.88009 9.56409C6.76563 9.52099 6.64296 9.49881 6.51907 9.49881C6.39518 9.49881 6.27251 9.52099 6.15805 9.56409C6.0436 9.60719 5.9396 9.67036 5.852 9.75C5.67508 9.91084 5.57569 10.129 5.57569 10.3564C5.57569 10.5839 5.67508 10.802 5.852 10.9629L8.96343 13.7914C9.05078 13.8715 9.1547 13.935 9.26919 13.9783C9.38368 14.0217 9.50648 14.044 9.6305 14.044C9.75452 14.044 9.87732 14.0217 9.99181 13.9783C10.1063 13.935 10.2102 13.8715 10.2976 13.7914L16.7404 7.93286C16.8292 7.85355 16.8998 7.75905 16.9482 7.65481C16.9966 7.55056 17.0218 7.43864 17.0224 7.32549C17.023 7.21235 16.9989 7.10022 16.9516 6.99557C16.9043 6.89092 16.8346 6.79583 16.7467 6.71577C16.6587 6.63572 16.5542 6.57229 16.4391 6.52914C16.3241 6.48599 16.2007 6.46398 16.0763 6.46437C15.9518 6.46476 15.8287 6.48755 15.714 6.53143C15.5992 6.5753 15.4952 6.63939 15.4079 6.72L9.62971 11.9729Z" fill="#2ADFB6"/>
</svg>
