<svg width="30" height="26" viewBox="0 0 30 26" fill="none" xmlns="http://www.w3.org/2000/svg">
<path d="M4.63906 4.37227V3.09963L3.77278 4.03192L1.40199 6.58333C1.40197 6.58336 1.40195 6.58338 1.40193 6.58341C1.4019 6.58344 1.40187 6.58346 1.40184 6.58349C1.35031 6.63887 1.29112 6.68071 1.22868 6.70851C1.16629 6.7363 1.10085 6.75003 1.03574 6.75003C0.970637 6.75003 0.905195 6.7363 0.84281 6.70851C0.780312 6.68068 0.721069 6.63879 0.669496 6.58333C0.617853 6.52781 0.575139 6.45995 0.545419 6.3828C0.515686 6.30562 0.5 6.22177 0.5 6.13635C0.5 6.05092 0.515686 5.96708 0.545419 5.88989C0.575139 5.81274 0.617853 5.74489 0.669496 5.68936L4.80716 1.24254L4.80724 1.24246L4.81886 1.22996C4.92158 1.12383 5.05107 1.0721 5.17764 1.07326C5.30514 1.07444 5.43509 1.12936 5.53681 1.2393L5.53767 1.24023L9.67543 5.68936L9.67567 5.68962C9.72727 5.74503 9.76997 5.81276 9.7997 5.88978C9.82945 5.96684 9.84517 6.05057 9.84523 6.13589C9.84528 6.22121 9.82967 6.30497 9.80002 6.38209C9.77039 6.45917 9.72777 6.52698 9.67622 6.58248C9.62474 6.63791 9.5656 6.67979 9.5032 6.70764C9.44092 6.73543 9.37558 6.7492 9.31056 6.74925C9.24555 6.7493 9.1802 6.73563 9.11789 6.70794C9.05554 6.68022 8.99642 6.6385 8.94493 6.58326C8.94487 6.5832 8.94481 6.58314 8.94476 6.58308L6.57421 4.03192L5.70793 3.09963V4.37227V23.9329C5.70793 24.1065 5.64345 24.2664 5.53882 24.3789C5.43533 24.4901 5.30305 24.5452 5.17349 24.5452C5.04394 24.5452 4.91166 24.4901 4.80817 24.3789C4.70354 24.2664 4.63906 24.1065 4.63906 23.9329V4.37227ZM13.949 3.91178C13.949 3.73816 14.0135 3.57829 14.1181 3.46579C14.2216 3.35451 14.3539 3.2995 14.4834 3.2995H28.9656C29.0951 3.2995 29.2274 3.35451 29.3309 3.46579C29.4355 3.57829 29.5 3.73816 29.5 3.91178C29.5 4.0854 29.4355 4.24527 29.3309 4.35777C29.2274 4.46906 29.0951 4.52406 28.9656 4.52406H14.4834C14.3539 4.52406 14.2216 4.46906 14.1181 4.35777C14.0135 4.24527 13.949 4.0854 13.949 3.91178ZM14.1181 10.1395C14.2216 10.0282 14.3539 9.97319 14.4834 9.97319H24.8278C24.9574 9.97319 25.0896 10.0282 25.1931 10.1395C25.2978 10.252 25.3622 10.4119 25.3622 10.5855C25.3622 10.7591 25.2978 10.919 25.1931 11.0315C25.0896 11.1428 24.9574 11.1978 24.8278 11.1978H14.4834C14.3539 11.1978 14.2216 11.1428 14.1181 11.0315C14.0135 10.919 13.949 10.7591 13.949 10.5855C13.949 10.4119 14.0135 10.252 14.1181 10.1395ZM14.1181 16.8132C14.2216 16.7019 14.3539 16.6469 14.4834 16.6469H20.6901C20.8196 16.6469 20.9519 16.7019 21.0554 16.8132C21.16 16.9257 21.2245 17.0855 21.2245 17.2592C21.2245 17.4328 21.16 17.5927 21.0554 17.7052C20.9519 17.8164 20.8196 17.8715 20.6901 17.8715H14.4834C14.3539 17.8715 14.2216 17.8164 14.1181 17.7052C14.0135 17.5927 13.949 17.4328 13.949 17.2592C13.949 17.0856 14.0135 16.9257 14.1181 16.8132ZM14.1181 23.4869C14.2216 23.3756 14.3539 23.3206 14.4834 23.3206H16.5523C16.6819 23.3206 16.8141 23.3756 16.9176 23.4869C17.0223 23.5994 17.0867 23.7592 17.0867 23.9329C17.0867 24.1065 17.0223 24.2664 16.9176 24.3789C16.8141 24.4901 16.6819 24.5452 16.5523 24.5452H14.4834C14.3539 24.5452 14.2216 24.4901 14.1181 24.3789C14.0135 24.2664 13.949 24.1065 13.949 23.9329C13.949 23.7592 14.0135 23.5994 14.1181 23.4869Z" fill="black" fill-opacity="0.62" stroke="#F24E1E"/>
</svg>
