<svg width="36" height="34" viewBox="0 0 36 34" fill="none" xmlns="http://www.w3.org/2000/svg">
<path d="M17.8543 0.756775C16.5156 0.778455 15.5543 0.988025 14.9164 1.36381L6.17459 5.12884L1.31404 10.4469C0.289825 11.7187 1.01756 14.1758 4.216 12.6004L7.7199 8.88593C12.1672 5.80092 21.2414 7.2166 16.9379 13.4098C14.8265 16.9941 15.8148 18.743 18.5371 19.4801L19.7769 16.1269C21.9242 12.2391 25.9312 11.5381 25.7695 8.40175L35.4008 8.9582L35.3109 0.857947L17.8543 0.756775ZM12.9937 8.22832C11.4304 8.20664 9.89412 8.72695 8.78006 9.47851L5.26717 13.193C6.2285 13.8072 7.19881 13.4748 8.16014 12.7305C9.29217 13.193 10.1726 12.4775 10.8914 11.0467C11.1879 10.0711 11.6281 9.38457 12.9937 8.22832ZM5.84217 15.1658C5.80623 15.1658 5.76131 15.1658 5.72537 15.173C5.42889 15.2236 5.0785 15.4766 4.8449 16.0547C4.60232 16.6328 4.54842 17.4566 4.76404 18.3383C4.97967 19.2127 5.42889 19.957 5.93201 20.4195C6.41717 20.8748 6.86639 21.0049 7.16287 20.9543C7.46834 20.9109 7.80975 20.6508 8.04334 20.0799C8.28592 19.5018 8.34881 18.6707 8.13318 17.7963C7.90857 16.9146 7.45935 16.1703 6.96521 15.715C6.53396 15.3103 6.13865 15.1658 5.84217 15.1658ZM13.2633 22.8838C12.5535 22.891 11.664 23.0717 10.7926 23.4113C9.79529 23.8088 9.01365 24.358 8.59139 24.8639C8.16912 25.3625 8.13318 25.7383 8.26795 25.9623C8.40271 26.1791 8.79803 26.3887 9.55271 26.4176C10.3074 26.4537 11.3226 26.2875 12.3199 25.89C13.3172 25.4926 14.0988 24.9506 14.5211 24.4447C14.9433 23.9461 14.9793 23.5631 14.8445 23.3463C14.7097 23.1223 14.3144 22.9199 13.5597 22.891C13.4609 22.8838 13.3711 22.8838 13.2633 22.8838ZM4.49451 29.7924C4.07225 29.7996 3.68592 29.8502 3.34451 29.9297C2.58084 30.1103 2.14061 30.4355 1.99686 30.8185C1.84412 31.2088 1.99686 31.6713 2.50897 32.1699C3.03006 32.6613 3.90154 33.131 4.97967 33.3912C6.04881 33.6514 7.091 33.6441 7.86365 33.4562C8.63631 33.2756 9.07654 32.9504 9.22029 32.5674C9.36404 32.1771 9.22029 31.7146 8.6992 31.216C8.18709 30.7246 7.31561 30.2549 6.23748 29.9947C5.62654 29.8502 5.03357 29.7852 4.49451 29.7924Z" fill="#F24E1E"/>
</svg>
