<svg width="25" height="25" viewBox="0 0 25 25" fill="none" xmlns="http://www.w3.org/2000/svg">
<path d="M21.6603 5.35606C20.6033 4.30293 19.172 3.71161 17.6799 3.71161C16.1878 3.71161 14.7565 4.30293 13.6995 5.35606L12.896 6.15958L12.0925 5.35606C11.0355 4.30293 9.60416 3.71161 8.11206 3.71161C6.61997 3.71161 5.18868 4.30293 4.13166 5.35606C3.07808 6.41434 2.48657 7.84686 2.48657 9.34018C2.48657 10.8335 3.07808 12.266 4.13166 13.3243L12.3677 21.5604C12.4369 21.6301 12.5192 21.6855 12.6099 21.7232C12.7005 21.761 12.7978 21.7805 12.896 21.7805C12.9942 21.7805 13.0914 21.761 13.1821 21.7232C13.2728 21.6855 13.3551 21.6301 13.4242 21.5604L21.6603 13.3243C22.7139 12.266 23.3054 10.8335 23.3054 9.34018C23.3054 7.84686 22.7139 6.41434 21.6603 5.35606Z" fill="#B1B1B1"/>
</svg>
