<svg width="22" height="20" viewBox="0 0 22 20" fill="none" xmlns="http://www.w3.org/2000/svg">
<path d="M19.835 2.55251C18.7694 1.49088 17.3266 0.894798 15.8225 0.894798C14.3183 0.894798 12.8755 1.49088 11.81 2.55251L11 3.36251L10.19 2.55251C9.12441 1.49088 7.68158 0.894798 6.17745 0.894798C4.67332 0.894798 3.23049 1.49088 2.16495 2.55251C1.10287 3.61932 0.506592 5.0634 0.506592 6.56876C0.506592 8.07412 1.10287 9.51819 2.16495 10.585L10.4675 18.8875C10.5372 18.9578 10.6201 19.0136 10.7115 19.0517C10.8029 19.0898 10.9009 19.1094 11 19.1094C11.099 19.1094 11.197 19.0898 11.2884 19.0517C11.3798 19.0136 11.4627 18.9578 11.5325 18.8875L19.835 10.585C20.897 9.51819 21.4933 8.07412 21.4933 6.56876C21.4933 5.0634 20.897 3.61932 19.835 2.55251Z" fill="#B1B1B1"/>
</svg>
