<svg width="31" height="33" viewBox="0 0 31 33" fill="none" xmlns="http://www.w3.org/2000/svg">
<path d="M15.5 0C6.944 0 0 7.392 0 16.5C0 25.608 6.944 33 15.5 33C24.056 33 31 25.608 31 16.5C31 7.392 24.056 0 15.5 0ZM17.05 28.05H13.95V24.75H17.05V28.05ZM20.2585 15.2625L18.8635 16.7805C17.7475 17.985 17.05 18.975 17.05 21.45H13.95V20.625C13.95 18.81 14.6475 17.16 15.7635 15.9555L17.6855 13.8765C18.259 13.2825 18.6 12.4575 18.6 11.55C18.6 9.735 17.205 8.25 15.5 8.25C13.795 8.25 12.4 9.735 12.4 11.55H9.3C9.3 7.9035 12.0745 4.95 15.5 4.95C18.9255 4.95 21.7 7.9035 21.7 11.55C21.7 13.002 21.142 14.322 20.2585 15.2625Z" fill="#F24E1E"/>
</svg>
