<svg width="31" height="33" viewBox="0 0 31 33" fill="none" xmlns="http://www.w3.org/2000/svg">
<path d="M7.75033 30.25C7.03991 30.25 6.43154 29.9805 5.9252 29.4415C5.41887 28.9025 5.16613 28.2553 5.16699 27.5V13.75C5.16699 12.9938 5.42016 12.3461 5.92649 11.8071C6.43283 11.2681 7.04077 10.9991 7.75033 11H9.04199V8.25C9.04199 6.34792 9.6719 4.72633 10.9317 3.38525C12.1915 2.04417 13.7144 1.37408 15.5003 1.375C17.2871 1.375 18.8104 2.04554 20.0702 3.38663C21.33 4.72771 21.9595 6.34883 21.9587 8.25V11H23.2503C23.9607 11 24.5691 11.2695 25.0755 11.8085C25.5818 12.3475 25.8345 12.9947 25.8337 13.75V27.5C25.8337 28.2563 25.5805 28.9039 25.0742 29.4429C24.5678 29.9819 23.9599 30.2509 23.2503 30.25H7.75033ZM15.5003 23.375C16.2107 23.375 16.8191 23.1055 17.3255 22.5665C17.8318 22.0275 18.0845 21.3803 18.0837 20.625C18.0837 19.8688 17.8305 19.2211 17.3242 18.6821C16.8178 18.1431 16.2099 17.8741 15.5003 17.875C14.7899 17.875 14.1815 18.1445 13.6752 18.6835C13.1689 19.2225 12.9161 19.8697 12.917 20.625C12.917 21.3813 13.1702 22.0289 13.6765 22.5679C14.1828 23.1069 14.7908 23.3759 15.5003 23.375ZM11.6253 11H19.3753V8.25C19.3753 7.10417 18.9986 6.13021 18.2451 5.32813C17.4916 4.52604 16.5767 4.125 15.5003 4.125C14.4239 4.125 13.509 4.52604 12.7555 5.32813C12.0021 6.13021 11.6253 7.10417 11.6253 8.25V11Z" fill="#F24E1E"/>
</svg>
