<svg width="28" height="31" viewBox="0 0 28 31" fill="none" xmlns="http://www.w3.org/2000/svg">
<path d="M13.9756 24.9731C15.6318 24.9731 17.0399 24.2415 18.1997 22.7783C19.3595 21.3151 19.939 19.5394 19.9381 17.451C19.9381 15.3616 19.3582 13.5853 18.1984 12.1221C17.0385 10.6589 15.631 9.92787 13.9756 9.92898C12.3193 9.92898 10.9113 10.6606 9.75149 12.1237C8.59167 13.5869 8.0122 15.3627 8.01309 17.451C8.01309 19.5405 8.593 21.3168 9.75281 22.78C10.9126 24.2432 12.3202 24.9742 13.9756 24.9731ZM13.9756 21.63C13.0481 21.63 12.2641 21.226 11.6237 20.4181C10.9833 19.6101 10.6631 18.6211 10.6631 17.451C10.6631 16.2809 10.9833 15.2919 11.6237 14.484C12.2641 13.6761 13.0481 13.2721 13.9756 13.2721C14.9031 13.2721 15.687 13.6761 16.3275 14.484C16.9679 15.2919 17.2881 16.2809 17.2881 17.451C17.2881 18.6211 16.9679 19.6101 16.3275 20.4181C15.687 21.226 14.9031 21.63 13.9756 21.63ZM3.37559 30.8236C2.64684 30.8236 2.02276 30.496 1.50336 29.8407C0.983963 29.1855 0.724705 28.3987 0.725588 27.4804V7.42163C0.725588 6.50226 0.985288 5.71495 1.50469 5.0597C2.02409 4.40444 2.64772 4.07737 3.37559 4.07849H7.54934L10.0006 0.735352H17.9506L20.4018 4.07849H24.5756C25.3043 4.07849 25.9284 4.40612 26.4478 5.06137C26.9672 5.71663 27.2265 6.50338 27.2256 7.42163V27.4804C27.2256 28.3998 26.9659 29.1871 26.4465 29.8424C25.9271 30.4976 25.3035 30.8247 24.5756 30.8236H3.37559ZM24.5756 27.4804V7.42163H19.2093L16.7912 4.07849H11.16L8.74184 7.42163H3.37559V27.4804H24.5756Z" fill="#F24E1E"/>
</svg>
