<svg width="31" height="33" viewBox="0 0 31 33" fill="none" xmlns="http://www.w3.org/2000/svg">
<path d="M23.7733 15C18.0231 15 13.3725 19.695 13.3725 25.5C13.3725 26.01 13.4171 26.505 13.4913 27H0V25.5L2.97166 22.5V13.5C2.97166 8.85 5.9879 4.755 10.4008 3.435V3C10.4008 1.35 11.7381 0 13.3725 0C15.0069 0 16.3441 1.35 16.3441 3V3.435C20.7571 4.755 23.7733 8.85 23.7733 13.5V15ZM10.4008 28.5C10.4008 29.2956 10.7139 30.0587 11.2712 30.6213C11.8285 31.1839 12.5843 31.5 13.3725 31.5C13.952 31.5 14.4868 31.32 14.9475 31.035C14.472 30.255 14.1154 29.4 13.8182 28.5H10.4008ZM30.8607 27.48C31.0093 27.585 31.039 27.795 30.9499 27.96L29.464 30.555C29.3749 30.75 29.1817 30.75 29.0183 30.75L27.161 29.955C26.745 30.255 26.3735 30.51 25.9129 30.705L25.6306 32.685C25.6009 32.865 25.4523 33 25.2591 33H22.2875C22.1092 33 21.9457 32.865 21.916 32.685L21.6486 30.705C21.1731 30.51 20.8016 30.255 20.3856 29.955L18.5729 30.75C18.3797 30.75 18.1717 30.75 18.0826 30.555L16.5967 27.96C16.5544 27.8819 16.5402 27.7914 16.5564 27.7039C16.5727 27.6164 16.6184 27.5373 16.6859 27.48L18.2609 26.25C18.2311 25.995 18.2014 25.755 18.2014 25.5C18.2014 25.245 18.2311 25.005 18.2609 24.75L16.6859 23.52C16.5522 23.415 16.5076 23.25 16.5967 23.04L18.0826 20.46C18.1717 20.295 18.3797 20.25 18.5729 20.295L20.3856 21C20.8016 20.745 21.1731 20.49 21.6486 20.31L21.916 18.315C21.9457 18.135 22.1092 18 22.2875 18H25.2591C25.4523 18 25.6009 18.135 25.6306 18.315L25.9129 20.31C26.3735 20.49 26.745 20.745 27.161 21L29.0183 20.295C29.1817 20.25 29.3749 20.295 29.464 20.46L30.9499 23.04C31.039 23.25 31.0093 23.415 30.8607 23.52L29.3006 24.75C29.3581 25.2483 29.3581 25.7517 29.3006 26.25L30.8607 27.48ZM26.3735 25.5C26.3735 24.045 25.2145 22.875 23.7733 22.875C22.332 22.875 21.1731 24.045 21.1731 25.5C21.1731 26.955 22.3469 28.125 23.7733 28.125C25.1997 28.125 26.3735 26.955 26.3735 25.5Z" fill="#F24E1E"/>
</svg>
