<svg width="31" height="33" viewBox="0 0 31 33" fill="none" xmlns="http://www.w3.org/2000/svg">
<path opacity="0.3" d="M4.86248 9.72052H9.43498C9.93098 7.65802 10.644 5.67802 11.574 3.84652C8.72198 4.88602 6.35048 6.98152 4.86248 9.72052ZM8.61348 16.3205C8.61348 15.1985 8.70648 14.1095 8.83048 13.0205H3.59148C3.34348 14.0765 3.18848 15.182 3.18848 16.3205C3.18848 17.459 3.34348 18.5645 3.59148 19.6205H8.83048C8.70648 18.5315 8.61348 17.4425 8.61348 16.3205ZM4.86248 22.9205C6.35952 25.6774 8.74363 27.764 11.574 28.7945C10.6384 26.9368 9.92009 24.9641 9.43498 22.9205H4.86248ZM15.5885 3.18652C14.302 5.16652 13.2945 7.36102 12.628 9.72052H18.549C17.8825 7.36102 16.875 5.16652 15.5885 3.18652ZM26.3145 9.72052C24.8128 6.96787 22.4304 4.88273 19.603 3.84652C20.533 5.67802 21.246 7.65802 21.742 9.72052H26.3145ZM15.5885 29.4545C16.875 27.4745 17.8825 25.28 18.549 22.9205H12.628C13.2945 25.28 14.302 27.4745 15.5885 29.4545ZM19.603 28.7945C22.4304 27.7583 24.8128 25.6732 26.3145 22.9205H21.742C21.2569 24.9641 20.5385 26.9368 19.603 28.7945ZM27.5855 13.0205H22.3465C22.4705 14.1095 22.5635 15.1985 22.5635 16.3205C22.5635 17.4425 22.4705 18.5315 22.3465 19.6205H27.5855C27.8335 18.5645 27.9885 17.459 27.9885 16.3205C27.9885 15.182 27.8335 14.0765 27.5855 13.0205ZM11.9615 13.0205C11.822 14.093 11.7135 15.1985 11.7135 16.3205C11.7135 17.4425 11.822 18.5315 11.9615 19.6205H19.2155C19.355 18.5315 19.4635 17.4425 19.4635 16.3205C19.4635 15.1985 19.355 14.093 19.2155 13.0205H11.9615Z" fill="#F24E1E"/>
<path d="M15.4845 0C6.9285 0 0 7.392 0 16.5C0 25.608 6.9285 33 15.4845 33C24.056 33 31 25.608 31 16.5C31 7.392 24.056 0 15.4845 0ZM26.226 9.9H21.6535C21.1684 7.85641 20.45 5.88373 19.5145 4.026C22.3419 5.0622 24.7243 7.14735 26.226 9.9ZM15.5 3.366C16.7865 5.346 17.794 7.5405 18.4605 9.9H12.5395C13.206 7.5405 14.2135 5.346 15.5 3.366ZM3.503 19.8C3.255 18.744 3.1 17.6385 3.1 16.5C3.1 15.3615 3.255 14.256 3.503 13.2H8.742C8.618 14.289 8.525 15.378 8.525 16.5C8.525 17.622 8.618 18.711 8.742 19.8H3.503ZM4.774 23.1H9.3465C9.8425 25.1625 10.5555 27.1425 11.4855 28.974C8.65515 27.9435 6.27104 25.8569 4.774 23.1ZM9.3465 9.9H4.774C6.27104 7.14314 8.65515 5.05654 11.4855 4.026C10.55 5.88373 9.83162 7.85641 9.3465 9.9ZM15.5 29.634C14.2135 27.654 13.206 25.4595 12.5395 23.1H18.4605C17.794 25.4595 16.7865 27.654 15.5 29.634ZM19.127 19.8H11.873C11.7335 18.711 11.625 17.622 11.625 16.5C11.625 15.378 11.7335 14.2725 11.873 13.2H19.127C19.2665 14.2725 19.375 15.378 19.375 16.5C19.375 17.622 19.2665 18.711 19.127 19.8ZM19.5145 28.974C20.4445 27.1425 21.1575 25.1625 21.6535 23.1H26.226C24.7243 25.8527 22.3419 27.9378 19.5145 28.974ZM22.258 19.8C22.382 18.711 22.475 17.622 22.475 16.5C22.475 15.378 22.382 14.289 22.258 13.2H27.497C27.745 14.256 27.9 15.3615 27.9 16.5C27.9 17.6385 27.745 18.744 27.497 19.8H22.258Z" fill="#F24E1E"/>
</svg>
