<svg width="47" height="42" viewBox="0 0 47 42" fill="none" xmlns="http://www.w3.org/2000/svg">
<path d="M0 26V6.8421H10V4.10526L15 0L20 4.10526V12.3158H30V26H0ZM3.33333 23.2632H6.66667V20.5263H3.33333V23.2632ZM3.33333 17.7895H6.66667V15.0526H3.33333V17.7895ZM3.33333 12.3158H6.66667V9.57895H3.33333V12.3158ZM13.3333 23.2632H16.6667V20.5263H13.3333V23.2632ZM13.3333 17.7895H16.6667V15.0526H13.3333V17.7895ZM13.3333 12.3158H16.6667V9.57895H13.3333V12.3158ZM13.3333 6.8421H16.6667V4.10526H13.3333V6.8421ZM23.3333 23.2632H26.6667V20.5263H23.3333V23.2632ZM23.3333 17.7895H26.6667V15.0526H23.3333V17.7895Z" fill="#F24E1E"/>
</svg>
