<svg width="24" height="24" viewBox="0 0 24 24" fill="none" xmlns="http://www.w3.org/2000/svg">
<path fill-rule="evenodd" clip-rule="evenodd" d="M15.586 2.99964C15.9611 2.62469 16.4697 2.41406 17 2.41406C17.5303 2.41406 18.0389 2.62469 18.414 2.99964L21 5.58564C21.3749 5.96069 21.5856 6.46931 21.5856 6.99964C21.5856 7.52996 21.3749 8.03858 21 8.41364L19.414 9.99964L14 4.58564L15.586 2.99964ZM12.586 5.99964L3.586 14.9996C3.2109 15.3746 3.00011 15.8832 3 16.4136V18.9996C3 19.5301 3.21071 20.0388 3.58579 20.4138C3.96086 20.7889 4.46957 20.9996 5 20.9996H7.586C8.11639 20.9995 8.62501 20.7887 9 20.4136L18 11.4136L12.586 5.99964Z" fill="#F24E1E"/>
</svg>
