<svg width="30" height="35" viewBox="0 0 30 35" fill="none" xmlns="http://www.w3.org/2000/svg">
<path d="M1.25 35C0.918479 35 0.600537 34.8683 0.366117 34.6339C0.131696 34.3995 0 34.0815 0 33.75V2.82266C8.9432e-05 2.49514 0.0859644 2.17337 0.249076 1.88936C0.412187 1.60535 0.646845 1.36903 0.929688 1.20391C1.875 0.654688 3.77969 0 7.5 0C10.407 0 13.6586 1.14922 16.5273 2.1625C18.8375 2.97891 21.0195 3.75 22.5 3.75C24.4058 3.74415 26.2914 3.35907 28.0469 2.61719C28.2606 2.52695 28.4934 2.49101 28.7245 2.51258C28.9555 2.53415 29.1776 2.61255 29.371 2.7408C29.5644 2.86905 29.723 3.04316 29.8327 3.2476C29.9425 3.45204 30 3.68046 30 3.9125V21.05C29.9997 21.3538 29.9109 21.6508 29.7443 21.9049C29.5778 22.159 29.3409 22.359 29.0625 22.4805C28.382 22.7781 25.8977 23.75 22.5 23.75C20.6141 23.75 18.2516 23.1922 15.7508 22.6008C12.9398 21.9367 10.0336 21.25 7.5 21.25C4.61953 21.25 3.14531 21.6859 2.5 21.9617V33.75C2.5 34.0815 2.3683 34.3995 2.13388 34.6339C1.89946 34.8683 1.58152 35 1.25 35Z" fill="#F24E1E"/>
</svg>
