<svg width="30" height="23" viewBox="0 0 30 23" fill="none" xmlns="http://www.w3.org/2000/svg">
<path d="M7.5 23C5.43182 23 3.66455 22.2418 2.19818 20.7253C0.731819 19.2088 -0.000908246 17.3553 8.4488e-07 15.1648C8.4488e-07 13.2873 0.534092 11.6143 1.60227 10.146C2.67046 8.67766 4.06818 7.73888 5.79546 7.32967C6.31818 5.37991 7.29 3.74307 8.71091 2.41915C10.1318 1.09524 11.7736 0.288854 13.6364 0V11.6625L11.4545 9.42386L9.54546 11.4458L15 17.2229L20.4545 11.4458L18.5455 9.42386L16.3636 11.6625V0C18.7045 0.336996 20.6536 1.45053 22.2109 3.3406C23.7682 5.23066 24.5464 7.45099 24.5455 10.0016C26.1136 10.1941 27.415 10.9105 28.4495 12.1506C29.4841 13.3908 30.0009 14.8408 30 16.5008C30 18.3061 29.4032 19.8409 28.2095 21.1051C27.0159 22.3693 25.5673 23.001 23.8636 23H7.5Z" fill="#F24E1E"/>
</svg>
