<svg width="31" height="33" viewBox="0 0 31 33" fill="none" xmlns="http://www.w3.org/2000/svg">
<path d="M15.5 0.000619718C16.9282 0.000619718 18.3006 0.19893 19.617 0.595549C20.9335 0.992169 22.163 1.54744 23.3056 2.26135C24.4482 2.97527 25.4976 3.83461 26.4539 4.83938C27.4102 5.84415 28.2175 6.95468 28.8757 8.17099C29.5339 9.38729 30.0555 10.7027 30.4405 12.1174C30.8255 13.532 31.0118 14.9928 30.9994 16.5C30.9994 18.0204 30.8131 19.4813 30.4405 20.8826C30.068 22.284 29.5463 23.5929 28.8757 24.8092C28.205 26.0255 27.3978 27.1426 26.4539 28.1606C25.51 29.1786 24.4668 30.038 23.3242 30.7386C22.1816 31.4393 20.9459 31.9946 19.617 32.4044C18.2882 32.8143 16.9158 33.0126 15.5 32.9994C14.0718 32.9994 12.6994 32.8011 11.383 32.4044C10.0665 32.0078 8.83699 31.4526 7.6944 30.7386C6.55182 30.0247 5.50238 29.1654 4.54608 28.1606C3.58979 27.1558 2.78253 26.0453 2.1243 24.829C1.46607 23.6127 0.944457 22.2973 0.559455 20.8826C0.174454 19.468 -0.0118372 18.0072 0.00058216 16.5C0.00058216 14.9796 0.186873 13.5187 0.559455 12.1174C0.932038 10.716 1.45365 9.40712 2.1243 8.19082C2.79495 6.97452 3.60221 5.85737 4.54608 4.83938C5.48996 3.82139 6.53319 2.96205 7.67577 2.26135C8.81836 1.56066 10.0541 1.00539 11.383 0.595549C12.7118 0.185709 14.0842 -0.0126009 15.5 0.000619718Z" fill="#F24E1E"/>
</svg>
