<svg width="41" height="37" viewBox="0 0 41 37" fill="none" xmlns="http://www.w3.org/2000/svg">
<g clip-path="url(#clip0_372_4154)">
<path d="M37.5834 11.6172V26.2091C37.5835 27.3888 37.084 28.5239 36.1872 29.3822C35.2904 30.2405 34.0641 30.7571 32.7591 30.8264L32.4584 30.8341H8.54175C7.23451 30.8341 5.97666 30.3834 5.02555 29.5741C4.07444 28.7648 3.50198 27.6581 3.42529 26.4804L3.41675 26.2091V11.6172L19.552 21.3251L19.7501 21.4268C19.9837 21.5298 20.2402 21.5833 20.5001 21.5833C20.76 21.5833 21.0165 21.5298 21.25 21.4268L21.4482 21.3251L37.5834 11.6172Z" fill="#F24E1E"/>
<path d="M32.4582 6.16602C34.3032 6.16602 35.921 7.04477 36.823 8.36597L20.4999 18.1864L4.17676 8.36597C4.60509 7.73816 5.19358 7.21188 5.89313 6.83106C6.59269 6.45024 7.38301 6.22592 8.19817 6.17681L8.54155 6.16602H32.4582Z" fill="#F24E1E"/>
</g>
<defs>
<clipPath id="clip0_372_4154">
<rect width="41" height="37" fill="white"/>
</clipPath>
</defs>
</svg>
