<svg width="31" height="34" viewBox="0 0 31 34" fill="none" xmlns="http://www.w3.org/2000/svg">
<path d="M15.5 0.5C17.5554 0.5 19.5267 1.36919 20.9801 2.91637C22.4335 4.46354 23.25 6.56196 23.25 8.75C23.25 10.938 22.4335 13.0365 20.9801 14.5836C19.5267 16.1308 17.5554 17 15.5 17C13.4446 17 11.4733 16.1308 10.0199 14.5836C8.56651 13.0365 7.75 10.938 7.75 8.75C7.75 6.56196 8.56651 4.46354 10.0199 2.91637C11.4733 1.36919 13.4446 0.5 15.5 0.5ZM15.5 21.125C24.0638 21.125 31 24.8169 31 29.375V33.5H0V29.375C0 24.8169 6.93625 21.125 15.5 21.125Z" fill="#F24E1E"/>
</svg>
