<svg width="31" height="33" viewBox="0 0 31 33" fill="none" xmlns="http://www.w3.org/2000/svg">
<path fill-rule="evenodd" clip-rule="evenodd" d="M1.4314e-05 16.5C1.4314e-05 7.38705 6.93936 0 15.5 0C24.0607 0 31 7.38705 31 16.5C31 25.6129 24.0607 33 15.5 33C13.2161 33.0032 10.9599 32.4673 8.89391 31.4308L1.86156 32.9653C1.61047 33.02 1.35058 33.0075 1.10513 32.929C0.859694 32.8505 0.636369 32.7084 0.455151 32.5155C0.273933 32.3226 0.140477 32.0848 0.0667286 31.8236C-0.00701944 31.5623 -0.0187578 31.2856 0.0325642 31.0183L1.47406 23.5323C0.500341 21.333 -0.00309484 18.9313 1.4314e-05 16.5ZM15.5 9.9C15.9111 9.9 16.3053 10.0738 16.596 10.3833C16.8867 10.6927 17.05 11.1124 17.05 11.55V14.85H20.15C20.5611 14.85 20.9553 15.0238 21.246 15.3333C21.5367 15.6427 21.7 16.0624 21.7 16.5C21.7 16.9376 21.5367 17.3573 21.246 17.6667C20.9553 17.9762 20.5611 18.15 20.15 18.15H17.05V21.45C17.05 21.8876 16.8867 22.3073 16.596 22.6167C16.3053 22.9261 15.9111 23.1 15.5 23.1C15.0889 23.1 14.6947 22.9261 14.404 22.6167C14.1133 22.3073 13.95 21.8876 13.95 21.45V18.15H10.85C10.4389 18.15 10.0447 17.9762 9.75399 17.6667C9.46331 17.3573 9.30001 16.9376 9.30001 16.5C9.30001 16.0624 9.46331 15.6427 9.75399 15.3333C10.0447 15.0238 10.4389 14.85 10.85 14.85H13.95V11.55C13.95 11.1124 14.1133 10.6927 14.404 10.3833C14.6947 10.0738 15.0889 9.9 15.5 9.9Z" fill="#F24E1E"/>
</svg>
