<svg width="31" height="33" viewBox="0 0 31 33" fill="none" xmlns="http://www.w3.org/2000/svg">
<path d="M13.5625 25.6667H17.4375V16.5H13.5625V25.6667ZM15.5 12.8333C16.049 12.8333 16.5094 12.6573 16.8814 12.3053C17.2534 11.9533 17.4388 11.5182 17.4375 11C17.4375 10.4806 17.2515 10.0448 16.8795 9.69283C16.5075 9.34083 16.0477 9.16544 15.5 9.16667C14.951 9.16667 14.4906 9.34267 14.1186 9.69467C13.7466 10.0467 13.5612 10.4818 13.5625 11C13.5625 11.5194 13.7485 11.9552 14.1205 12.3072C14.4925 12.6592 14.9523 12.8346 15.5 12.8333ZM0 33V11L15.5 0L31 11V33H0Z" fill="#F24E1E"/>
</svg>
