<svg width="29" height="30" viewBox="0 0 29 30" fill="none" xmlns="http://www.w3.org/2000/svg">
<path fill-rule="evenodd" clip-rule="evenodd" d="M29 15C29 23.2845 22.5084 30 14.5 30C6.49165 30 0 23.2845 0 15C0 6.7155 6.49165 0 14.5 0C22.5084 0 29 6.7155 29 15ZM10.1065 10.455C10.3104 10.2443 10.5868 10.126 10.875 10.126C11.1632 10.126 11.4396 10.2443 11.6435 10.455L14.5 13.41L17.3565 10.455C17.5627 10.2563 17.8353 10.1481 18.1171 10.1532C18.3988 10.1584 18.6676 10.2764 18.8669 10.4826C19.0661 10.6887 19.1802 10.9668 19.1852 11.2582C19.1902 11.5497 19.0856 11.8317 18.8935 12.045L16.037 15L18.8935 17.955C19.0856 18.1683 19.1902 18.4503 19.1852 18.7418C19.1802 19.0332 19.0661 19.3113 18.8669 19.5174C18.6676 19.7236 18.3988 19.8416 18.1171 19.8468C17.8353 19.8519 17.5627 19.7437 17.3565 19.545L14.5 16.59L11.6435 19.545C11.4373 19.7437 11.1647 19.8519 10.8829 19.8468C10.6012 19.8416 10.3324 19.7236 10.1331 19.5174C9.9339 19.3113 9.81977 19.0332 9.8148 18.7418C9.80982 18.4503 9.9144 18.1683 10.1065 17.955L12.963 15L10.1065 12.045C9.90285 11.8341 9.78846 11.5481 9.78846 11.25C9.78846 10.9519 9.90285 10.6659 10.1065 10.455Z" fill="#CE1126"/>
</svg>
