<svg width="22" height="22" viewBox="0 0 22 22" fill="none" xmlns="http://www.w3.org/2000/svg">
<path fill-rule="evenodd" clip-rule="evenodd" d="M0.166514 11.0003C0.166514 5.01708 5.0166 0.166992 10.9998 0.166992C16.9831 0.166992 21.8332 5.01708 21.8332 11.0003C21.8332 16.9836 16.9831 21.8337 10.9998 21.8337C9.40355 21.8358 7.82665 21.4839 6.38268 20.8034L1.4676 21.8109C1.2921 21.8468 1.11046 21.8386 0.938911 21.787C0.767366 21.7355 0.611278 21.6422 0.48462 21.5156C0.357963 21.3889 0.264686 21.2328 0.213142 21.0613C0.161598 20.8897 0.153394 20.7081 0.189264 20.5326L1.19676 15.6175C0.516205 14.1735 0.164341 12.5966 0.166514 11.0003ZM10.9998 6.66699C11.2872 6.66699 11.5627 6.78113 11.7659 6.98429C11.969 7.18746 12.0832 7.46301 12.0832 7.75033V9.91699H14.2498C14.5372 9.91699 14.8127 10.0311 15.0159 10.2343C15.219 10.4375 15.3332 10.713 15.3332 11.0003C15.3332 11.2876 15.219 11.5632 15.0159 11.7664C14.8127 11.9695 14.5372 12.0837 14.2498 12.0837H12.0832V14.2503C12.0832 14.5376 11.969 14.8132 11.7659 15.0164C11.5627 15.2195 11.2872 15.3337 10.9998 15.3337C10.7125 15.3337 10.437 15.2195 10.2338 15.0164C10.0307 14.8132 9.91651 14.5376 9.91651 14.2503V12.0837H7.74985C7.46253 12.0837 7.18698 11.9695 6.98382 11.7664C6.78065 11.5632 6.66651 11.2876 6.66651 11.0003C6.66651 10.713 6.78065 10.4375 6.98382 10.2343C7.18698 10.0311 7.46253 9.91699 7.74985 9.91699H9.91651V7.75033C9.91651 7.46301 10.0307 7.18746 10.2338 6.98429C10.437 6.78113 10.7125 6.66699 10.9998 6.66699Z" fill="#F24E1E"/>
</svg>
