<svg width="29" height="32" viewBox="0 0 29 32" fill="none" xmlns="http://www.w3.org/2000/svg">
<path d="M7.99917 11.3867C9.73917 15.16 12.5425 18.24 15.9621 20.1733L18.6204 17.24C18.9467 16.88 19.43 16.76 19.8529 16.92C21.2063 17.4133 22.6683 17.68 24.1667 17.68C24.8313 17.68 25.375 18.28 25.375 19.0133V23.6667C25.375 24.4 24.8313 25 24.1667 25C12.8204 25 3.625 14.8533 3.625 2.33333C3.625 1.6 4.16875 1 4.83333 1H9.0625C9.72708 1 10.2708 1.6 10.2708 2.33333C10.2708 4 10.5125 5.6 10.9596 7.09333C11.0925 7.56 10.9958 8.08 10.6575 8.45333L7.99917 11.3867Z" fill="#F24E1E"/>
</svg>
