<svg width="31" height="32" viewBox="0 0 31 32" fill="none" xmlns="http://www.w3.org/2000/svg">
<path d="M25.5748 30.1335L21.9582 26.4002V26.6669H1.2915V22.9335C1.2915 22.178 1.48009 21.4833 1.85725 20.8495C2.23442 20.2158 2.73473 19.7326 3.35817 19.4002C4.69289 18.7113 6.04914 18.1944 7.42692 17.8495C8.8047 17.5046 10.204 17.3326 11.6248 17.3335C11.9047 17.3335 12.1794 17.3393 12.4489 17.3509C12.7184 17.3624 12.9819 17.3789 13.2394 17.4002L11.8832 16.0002H11.6248C10.204 16.0002 8.98768 15.478 7.97588 14.4335C6.96407 13.3891 6.45817 12.1335 6.45817 10.6669V10.4002L1.80817 5.60019L3.6488 3.7002L27.4155 28.2335L25.5748 30.1335ZM23.2498 18.6669V14.6669H19.3748V12.0002H23.2498V8.0002H25.8332V12.0002H29.7082V14.6669H25.8332V18.6669H23.2498ZM16.2748 12.9335L9.429 5.86686C9.75192 5.68908 10.102 5.55575 10.4791 5.46686C10.8563 5.37797 11.2382 5.33353 11.6248 5.33353C13.0457 5.33353 14.262 5.85575 15.2738 6.9002C16.2856 7.94464 16.7915 9.2002 16.7915 10.6669C16.7915 11.0669 16.7484 11.4615 16.6623 11.8509C16.5762 12.2402 16.4471 12.6011 16.2748 12.9335Z" fill="#F24E1E"/>
</svg>
