<svg width="31" height="33" viewBox="0 0 31 33" fill="none" xmlns="http://www.w3.org/2000/svg">
<path d="M8.91212 1.22222C8.91212 0.898069 8.78964 0.587192 8.57163 0.357981C8.35362 0.12877 8.05793 0 7.74962 0C7.44131 0 7.14562 0.12877 6.92761 0.357981C6.7096 0.587192 6.58712 0.898069 6.58712 1.22222V3.79704C4.35512 3.98444 2.89192 4.444 1.81622 5.57659C0.73897 6.70756 0.30187 8.24756 0.12207 10.5926H30.8772C30.6974 8.24593 30.2603 6.70756 29.183 5.57659C28.1073 4.444 26.6426 3.98444 24.4121 3.79541V1.22222C24.4121 0.898069 24.2896 0.587192 24.0716 0.357981C23.8536 0.12877 23.5579 0 23.2496 0C22.9413 0 22.6456 0.12877 22.4276 0.357981C22.2096 0.587192 22.0871 0.898069 22.0871 1.22222V3.68785C21.0564 3.66667 19.9001 3.66667 18.5996 3.66667H12.3996C11.0992 3.66667 9.94287 3.66667 8.91212 3.68785V1.22222Z" fill="#F24E1E"/>
<path fill-rule="evenodd" clip-rule="evenodd" d="M31 16.7038V19.963C31 26.1084 31 29.1818 29.1834 31.0901C27.3683 33.0001 24.445 33.0001 18.6 33.0001H12.4C6.55495 33.0001 3.63165 33.0001 1.8166 31.0901C-1.84774e-07 29.1818 0 26.1084 0 19.963V16.7038C0 15.3365 1.73226e-08 14.1208 0.02015 13.0371H30.9798C31 14.1208 31 15.3365 31 16.7038ZM22.475 26.4816C23.0916 26.4816 23.683 26.224 24.119 25.7656C24.555 25.3072 24.8 24.6854 24.8 24.0371C24.8 23.3888 24.555 22.767 24.119 22.3086C23.683 21.8502 23.0916 21.5927 22.475 21.5927C21.8584 21.5927 21.267 21.8502 20.831 22.3086C20.395 22.767 20.15 23.3888 20.15 24.0371C20.15 24.6854 20.395 25.3072 20.831 25.7656C21.267 26.224 21.8584 26.4816 22.475 26.4816Z" fill="#F24E1E"/>
</svg>
