<svg width="31" height="32" viewBox="0 0 31 32" fill="none" xmlns="http://www.w3.org/2000/svg">
<path fill-rule="evenodd" clip-rule="evenodd" d="M15.5 30.35C23.2043 30.35 29.45 23.7013 29.45 15.5C29.45 7.29867 23.2043 0.65 15.5 0.65C7.79572 0.65 1.55 7.29867 1.55 15.5C1.55 23.7013 7.79572 30.35 15.5 30.35ZM15.5 32C24.0606 32 31 24.6129 31 15.5C31 6.38705 24.0606 -1 15.5 -1C6.93935 -1 0 6.38705 0 15.5C0 24.6129 6.93935 32 15.5 32Z" fill="#F24E1E"/>
<path d="M6.2002 25.0944C6.2002 24.2421 6.7985 23.5219 7.5952 23.4279C13.5743 22.7233 17.4532 22.7868 23.4191 23.4435C23.7171 23.4768 23.9994 23.6018 24.2317 23.8031C24.464 24.0044 24.6363 24.2734 24.7273 24.5772C24.8184 24.881 24.8244 25.2064 24.7446 25.5138C24.6647 25.8211 24.5026 26.0971 24.2778 26.3079C17.237 32.8411 13.2132 32.7512 6.6962 26.3145C6.37845 26.001 6.2002 25.5547 6.2002 25.0944Z" fill="#F24E1E"/>
<path fill-rule="evenodd" clip-rule="evenodd" d="M23.3389 24.2638C17.4203 23.6121 13.5972 23.551 7.67928 24.2481C7.48448 24.2723 7.3049 24.3721 7.17491 24.5284C7.04493 24.6848 6.97368 24.8866 6.97481 25.0954C6.97481 25.3314 7.06703 25.5549 7.22281 25.71C10.453 28.8995 12.9005 30.3408 15.2929 30.3498C17.6938 30.3589 20.273 28.9292 23.7683 25.6869C23.8793 25.5817 23.9593 25.4444 23.9984 25.2918C24.0375 25.1391 24.0341 24.9776 23.9886 24.827C23.9432 24.6763 23.8575 24.543 23.7422 24.4431C23.6269 24.3433 23.4868 24.2805 23.3389 24.2638ZM7.50956 22.608C13.5515 21.8961 17.4869 21.9604 23.4994 22.6229C23.9475 22.6727 24.3724 22.8605 24.7218 23.1634C25.0713 23.4662 25.3302 23.871 25.4669 24.3281C25.6036 24.7851 25.6121 25.2747 25.4914 25.7369C25.3707 26.1991 25.1261 26.6138 24.7874 26.9302C21.2418 30.2203 18.289 32.0122 15.2882 31.9998C12.2789 31.9883 9.45636 30.1659 6.16958 26.9195C5.93426 26.6861 5.74666 26.4037 5.61851 26.0897C5.49037 25.7757 5.42443 25.4369 5.42481 25.0946C5.42368 24.4795 5.63577 23.8856 6.02045 23.4266C6.40513 22.9676 6.93535 22.6767 7.50956 22.608Z" fill="#F24E1E"/>
<path d="M21.6998 12.1996C21.6998 13.95 21.0466 15.6288 19.8839 16.8665C18.7211 18.1043 17.1441 18.7996 15.4998 18.7996C13.8555 18.7996 12.2785 18.1043 11.1157 16.8665C9.95302 15.6288 9.2998 13.95 9.2998 12.1996C9.2998 10.4492 9.95302 8.77044 11.1157 7.5327C12.2785 6.29496 13.8555 5.59961 15.4998 5.59961C17.1441 5.59961 18.7211 6.29496 19.8839 7.5327C21.0466 8.77044 21.6998 10.4492 21.6998 12.1996Z" fill="#F24E1E"/>
<path fill-rule="evenodd" clip-rule="evenodd" d="M15.4998 17.1496C16.7331 17.1496 17.9158 16.6281 18.7879 15.6998C19.6599 14.7715 20.1498 13.5124 20.1498 12.1996C20.1498 10.8868 19.6599 9.62774 18.7879 8.69943C17.9158 7.77113 16.7331 7.24961 15.4998 7.24961C14.2665 7.24961 13.0838 7.77113 12.2118 8.69943C11.3397 9.62774 10.8498 10.8868 10.8498 12.1996C10.8498 13.5124 11.3397 14.7715 12.2118 15.6998C13.0838 16.6281 14.2665 17.1496 15.4998 17.1496ZM15.4998 18.7996C17.1441 18.7996 18.7211 18.1043 19.8839 16.8665C21.0466 15.6288 21.6998 13.95 21.6998 12.1996C21.6998 10.4492 21.0466 8.77044 19.8839 7.5327C18.7211 6.29496 17.1441 5.59961 15.4998 5.59961C13.8555 5.59961 12.2785 6.29496 11.1157 7.5327C9.95302 8.77044 9.2998 10.4492 9.2998 12.1996C9.2998 13.95 9.95302 15.6288 11.1157 16.8665C12.2785 18.1043 13.8555 18.7996 15.4998 18.7996Z" fill="#F24E1E"/>
</svg>
