<svg width="31" height="33" viewBox="0 0 31 33" fill="none" xmlns="http://www.w3.org/2000/svg">
<path d="M25.5753 31.0748L21.9587 27.2248V27.4998H1.29199V23.6498C1.29199 22.8706 1.48058 22.1543 1.85774 21.5007C2.23491 20.8471 2.73521 20.3489 3.35866 20.0061C4.69338 19.2956 6.04963 18.7626 7.42741 18.4069C8.80519 18.0513 10.2045 17.8739 11.6253 17.8748C11.9052 17.8748 12.1799 17.8808 12.4494 17.8927C12.7189 17.9046 12.9824 17.9216 13.2399 17.9436L11.8837 16.4998H11.6253C10.2045 16.4998 8.98817 15.9613 7.97637 14.8842C6.96456 13.8071 6.45866 12.5123 6.45866 10.9998V10.7248L1.80866 5.7748L3.64928 3.81543L27.416 29.1154L25.5753 31.0748ZM23.2503 19.2498V15.1248H19.3753V12.3748H23.2503V8.2498H25.8337V12.3748H29.7087V15.1248H25.8337V19.2498H23.2503ZM16.2753 13.3373L9.42949 6.0498C9.75241 5.86647 10.1025 5.72897 10.4796 5.6373C10.8568 5.54564 11.2387 5.4998 11.6253 5.4998C13.0462 5.4998 14.2625 6.03835 15.2743 7.11543C16.2861 8.19251 16.792 9.4873 16.792 10.9998C16.792 11.4123 16.7489 11.8193 16.6628 12.2208C16.5767 12.6223 16.4475 12.9945 16.2753 13.3373Z" fill="#F24E1E"/>
</svg>
